<svg width="32" height="32" viewBox="0 0 32 32" fill="none" xmlns="http://www.w3.org/2000/svg">
<g clip-path="url(#clip0_255_5274)">
<path d="M3.0625 29L4.89008 22.3234C3.76233 20.3691 3.16975 18.1537 3.17083 15.8819C3.17408 8.77958 8.95367 3 16.0549 3C19.501 3.00108 22.7358 4.34333 25.169 6.77867C27.6011 9.214 28.9401 12.451 28.939 15.8938C28.9357 22.9973 23.1562 28.7768 16.0549 28.7768C13.8991 28.7758 11.7747 28.2352 9.89292 27.2082L3.0625 29ZM10.2092 24.8758C12.0249 25.9537 13.7582 26.5993 16.0506 26.6004C21.9526 26.6004 26.7604 21.7969 26.7637 15.8917C26.7658 9.9745 21.9807 5.1775 16.0592 5.17533C10.1529 5.17533 5.34833 9.97883 5.34617 15.883C5.34508 18.2934 6.05142 20.0982 7.23767 21.9865L6.15542 25.9385L10.2092 24.8758ZM22.5452 18.9564C22.465 18.8221 22.2505 18.7419 21.9277 18.5805C21.6059 18.4191 20.0232 17.6402 19.7274 17.5329C19.4327 17.4257 19.2182 17.3715 19.0027 17.6943C18.7882 18.0161 18.1707 18.7419 17.9832 18.9564C17.7958 19.1709 17.6073 19.198 17.2856 19.0366C16.9638 18.8752 15.926 18.5361 14.6964 17.4387C13.7398 16.585 13.0931 15.5309 12.9057 15.2081C12.7182 14.8863 12.8862 14.7119 13.0465 14.5516C13.1917 14.4075 13.3682 14.1757 13.5297 13.9872C13.6932 13.8008 13.7463 13.6665 13.8547 13.4509C13.9619 13.2364 13.9088 13.0479 13.8276 12.8865C13.7463 12.7262 13.1028 11.1413 12.8352 10.4967C12.5731 9.86942 12.3077 9.95392 12.1105 9.94417L11.493 9.93333C11.2785 9.93333 10.9297 10.0135 10.635 10.3363C10.3403 10.6592 9.50833 11.437 9.50833 13.0219C9.50833 14.6068 10.6621 16.1376 10.8224 16.3521C10.9838 16.5666 13.092 19.8188 16.3214 21.213C17.0895 21.5445 17.6897 21.7428 18.1566 21.8912C18.9279 22.136 19.6299 22.1013 20.1846 22.019C20.8032 21.9269 22.0891 21.2401 22.3577 20.4883C22.6264 19.7353 22.6264 19.0908 22.5452 18.9564Z" fill="white"/>
</g>
<defs>
<clipPath id="clip0_255_5274">
<rect width="26" height="26" fill="white" transform="translate(3 3)"/>
</clipPath>
</defs>
</svg>
