<svg width="150" height="150" viewBox="0 0 150 150" fill="none" xmlns="http://www.w3.org/2000/svg">
<path d="M38 44.3158V22H79.6208C83.1358 22 86.6584 22.4719 89.9288 23.7601C91.8436 24.5143 93.573 25.312 95.3224 26.2518C100.321 28.9368 104.77 32.7287 107.705 37.5849C108.96 39.6626 109.956 41.8113 110.824 44.3054C112.631 49.4964 113.242 55.1155 112.223 60.5168C111.87 62.3862 111.396 64.077 110.789 65.6981C108 73.149 101.908 79.047 94.8067 82.6339V82.6339C88.4975 85.8206 81.3258 86.5564 74.2574 86.5564H62.0642V117.458C62.0642 119.158 61.7937 120.865 61.0413 122.389C59.8122 124.878 58.419 126.353 55.8361 127.395C54.6721 127.865 53.4061 128 52.1509 128H38V75M38 75C49.021 56.8729 56.9195 52.0386 68.0802 47.1053M38 75C43.4709 73.8781 47.462 73.5422 51.572 73.2185C56.0762 72.8637 60.0167 72.1476 63.9768 69.9722V69.9722C69.5795 66.8944 74.1104 61.376 77.5876 56.012C78.6625 54.3539 79.854 52.5391 81.3155 50.2932C84.6563 45.9216 86.8527 43.5715 90.4667 39.9981C90.8467 39.6224 90.668 38.9736 90.1482 38.849L84.4713 37.4875C81.302 36.7274 78.0852 36.1523 74.8321 35.9528C72.8247 35.8297 70.9955 35.7875 69.0343 35.8594C65.1847 36.0006 61.361 36.7671 57.7891 38.2099C57.3985 38.3677 57.0105 38.5317 56.6203 38.7045C52.9199 40.343 49.4168 42.9552 46.5416 45.8032V45.8032C43.5307 48.7855 40.7658 51.8758 39.3599 55.8737C38.9599 57.0109 38.61 58.5402 38 61.4511" stroke="#00A699" stroke-width="5.44337"/>
</svg>
