<svg width="32" height="32" viewBox="0 0 32 32" fill="none" xmlns="http://www.w3.org/2000/svg">
<path d="M25.8802 17.3332C25.5869 17.3332 25.2802 17.2398 24.9869 17.1732C24.3933 17.0404 23.8097 16.8667 23.2402 16.6532C22.6217 16.4281 21.9418 16.4398 21.3313 16.686C20.7209 16.9321 20.223 17.3954 19.9336 17.9865L19.6402 18.5998C18.3453 17.8654 17.1491 16.9694 16.0802 15.9332C15.044 14.8643 14.148 13.6681 13.4136 12.3732L14.0269 12.0932C14.6181 11.8037 15.0813 11.3059 15.3274 10.6954C15.5736 10.085 15.5853 9.40505 15.3602 8.7865C15.1485 8.21188 14.9748 7.62394 14.8402 7.0265C14.7736 6.73317 14.7202 6.4265 14.6802 6.13317C14.5183 5.194 14.0264 4.34349 13.2931 3.73482C12.5597 3.12615 11.6332 2.79932 10.6802 2.81317H6.6669C6.10323 2.81243 5.54576 2.93083 5.03105 3.16062C4.51634 3.3904 4.05601 3.72637 3.68023 4.1465C3.29666 4.57804 3.01105 5.0875 2.84303 5.63989C2.67502 6.19227 2.62857 6.77447 2.7069 7.3465C3.43168 12.896 5.96718 18.0514 9.92023 22.0132C13.882 25.9662 19.0374 28.5017 24.5869 29.2265C24.76 29.2397 24.9338 29.2397 25.1069 29.2265C26.0901 29.2279 27.0394 28.8672 27.7736 28.2132C28.1937 27.8374 28.5297 27.3771 28.7595 26.8623C28.9892 26.3476 29.1076 25.7902 29.1069 25.2265V21.2265C29.0997 20.3052 28.7747 19.4147 28.1868 18.7053C27.5989 17.9959 26.7842 17.5113 25.8802 17.3332ZM26.5336 25.3332C26.5331 25.5192 26.4937 25.7031 26.418 25.8731C26.3422 26.043 26.2317 26.1952 26.0936 26.3198C25.9474 26.453 25.7735 26.552 25.5844 26.6096C25.3953 26.6673 25.1958 26.6821 25.0002 26.6532C20.0246 26.0033 15.4006 23.7358 11.8402 20.1998C8.27686 16.6365 5.9896 11.9963 5.33356 6.99984C5.3046 6.80428 5.31948 6.60473 5.37713 6.41564C5.43478 6.22655 5.53376 6.05264 5.6669 5.9065C5.79306 5.76671 5.9474 5.65522 6.11976 5.57938C6.29212 5.50354 6.47859 5.46507 6.6669 5.4665H10.6669C10.9751 5.45897 11.2764 5.55848 11.5195 5.7481C11.7626 5.93772 11.9325 6.20573 12.0002 6.5065C12.0002 6.8665 12.1202 7.23984 12.2002 7.59984C12.3543 8.29832 12.5593 8.9846 12.8136 9.65317L10.9469 10.5332C10.626 10.6805 10.3767 10.949 10.2536 11.2798C10.1202 11.6045 10.1202 11.9686 10.2536 12.2932C12.1725 16.4035 15.4766 19.7076 19.5869 21.6265C19.9115 21.7599 20.2756 21.7599 20.6002 21.6265C20.9311 21.5034 21.1996 21.254 21.3469 20.9332L22.1869 19.0665C22.8748 19.3173 23.5785 19.5222 24.2936 19.6798C24.6402 19.7598 25.0136 19.8265 25.3736 19.8798C25.6743 19.9476 25.9423 20.1175 26.132 20.3606C26.3216 20.6037 26.4211 20.905 26.4136 21.2132L26.5336 25.3332ZM18.6669 2.6665C18.3602 2.6665 18.0402 2.6665 17.7336 2.6665C17.3799 2.69656 17.0527 2.86586 16.8239 3.13717C16.5952 3.40847 16.4835 3.75955 16.5136 4.11317C16.5436 4.46679 16.7129 4.79399 16.9842 5.02279C17.2555 5.25158 17.6066 5.36323 17.9602 5.33317H18.6669C20.7886 5.33317 22.8235 6.17603 24.3238 7.67632C25.824 9.17661 26.6669 11.2114 26.6669 13.3332C26.6669 13.5732 26.6669 13.7998 26.6669 14.0398C26.6373 14.3916 26.7485 14.7407 26.9759 15.0106C27.2034 15.2806 27.5286 15.4493 27.8802 15.4798H27.9869C28.3207 15.4812 28.6428 15.3573 28.8897 15.1327C29.1366 14.908 29.2902 14.5989 29.3202 14.2665C29.3202 13.9598 29.3202 13.6398 29.3202 13.3332C29.3202 10.5065 28.1983 7.79541 26.2008 5.79541C24.2032 3.7954 21.4936 2.67004 18.6669 2.6665V2.6665ZM21.3336 13.3332C21.3336 13.6868 21.474 14.0259 21.7241 14.276C21.9741 14.526 22.3133 14.6665 22.6669 14.6665C23.0205 14.6665 23.3597 14.526 23.6097 14.276C23.8598 14.0259 24.0002 13.6868 24.0002 13.3332C24.0002 11.9187 23.4383 10.5621 22.4381 9.56193C21.4379 8.56174 20.0814 7.99984 18.6669 7.99984C18.3133 7.99984 17.9741 8.14031 17.7241 8.39036C17.474 8.64041 17.3336 8.97955 17.3336 9.33317C17.3336 9.68679 17.474 10.0259 17.7241 10.276C17.9741 10.526 18.3133 10.6665 18.6669 10.6665C19.3741 10.6665 20.0524 10.9475 20.5525 11.4476C21.0526 11.9477 21.3336 12.6259 21.3336 13.3332Z" fill="white"/>
</svg>
